<svg width="1500" height="400" viewBox="0 0 1500 400" fill="none" xmlns="http://www.w3.org/2000/svg">
<g clip-path="url(#clip0_4_2)">
<rect width="1500" height="400" fill="white"/>
<rect width="1500" height="400" fill="#EBEBEB"/>
<g filter="url(#filter0_b_4_2)">
<rect x="51" y="51" width="1398" height="298" rx="15" stroke="#1572B6" stroke-width="2"/>
</g>
<path d="M192.742 135.783L224.408 154.058C225.542 154.7 225.583 156.475 224.408 157.117L186.783 178.85C186.246 179.165 185.635 179.331 185.012 179.331C184.39 179.331 183.779 179.165 183.242 178.85L145.617 157.117C144.458 156.5 144.442 154.675 145.617 154.058L177.258 135.783V100L96.4666 146.65V239.942L127.45 222.058V185.517C127.425 184.208 128.95 183.275 130.092 183.983L167.717 205.708C168.254 206.021 168.702 206.468 169.014 207.005C169.327 207.543 169.494 208.153 169.5 208.775V252.217C169.517 253.517 167.992 254.45 166.85 253.75L135.183 235.475L104.208 253.35L185 300L265.792 253.35L234.817 235.475L203.15 253.742C202.033 254.425 200.458 253.542 200.5 252.217V208.775C200.5 207.475 201.225 206.308 202.283 205.708L239.908 183.983C241.025 183.3 242.592 184.167 242.558 185.517V222.058L273.533 239.942V146.65L192.75 100L192.742 135.783Z" fill="#1572B6"/>
<path d="M495.594 152.344L496.063 152.031C495.125 150.312 493.719 148.75 492.313 147.969L416.844 104.531C415.594 103.75 413.875 103.438 412 103.438C410.125 103.438 408.406 103.906 407.156 104.531L332.156 148.125C329.5 149.687 327.625 153.594 327.625 156.562V243.594C327.625 245.313 327.937 247.188 329.031 248.906L328.719 249.063C329.5 250.313 330.594 251.406 331.688 252.031L407 295.625C408.25 296.406 409.969 296.719 411.844 296.719C413.719 296.719 415.437 296.25 416.688 295.625L491.688 252.031C494.344 250.469 496.219 246.563 496.219 243.594V156.406C496.375 155.156 496.219 153.75 495.594 152.344ZM412 261.719C377.938 261.719 350.281 234.062 350.281 200C350.281 165.938 377.938 138.281 412 138.281C434.969 138.281 454.969 150.937 465.594 169.531L445.281 181.25C438.719 169.531 426.219 161.719 412 161.719C390.906 161.719 373.719 178.906 373.719 200C373.719 221.094 390.906 238.281 412 238.281C426.219 238.281 438.719 230.469 445.281 218.906L465.437 230.781C454.812 249.219 434.813 261.719 412 261.719ZM491.688 196.875H486.688L485.281 203.125H491.688V210.938H483.875L482 220.313H474.344L476.219 210.938H470.281L468.406 220.313H460.906L462.781 210.938H458.875V203.125H464.344L465.75 196.875H458.875V189.062H467.156L469.031 179.687H476.688L474.812 189.062H480.75L482.625 179.687H490.125L488.25 189.062H491.688V196.875ZM471.844 203.125H477.781L479.188 196.875H473.25L471.844 203.125Z" fill="#1572B6"/>
<path d="M1384.9 250.455L1400.17 157.364H1409.26L1393.99 250.455H1384.9ZM1342.53 224.636L1343.99 215.545H1413.44L1411.99 224.636H1342.53ZM1352.17 250.455L1367.44 157.364H1376.53L1361.26 250.455H1352.17ZM1347.99 192.273L1349.44 183.182H1418.9L1417.44 192.273H1347.99Z" fill="#1572B6"/>
<path d="M1333.41 186.455H1322.14C1321.47 183.212 1320.3 180.364 1318.64 177.909C1317 175.455 1315 173.394 1312.64 171.727C1310.3 170.03 1307.71 168.758 1304.86 167.909C1302.02 167.061 1299.05 166.636 1295.95 166.636C1290.32 166.636 1285.21 168.061 1280.64 170.909C1276.09 173.758 1272.47 177.955 1269.77 183.5C1267.11 189.045 1265.77 195.848 1265.77 203.909C1265.77 211.97 1267.11 218.773 1269.77 224.318C1272.47 229.864 1276.09 234.061 1280.64 236.909C1285.21 239.758 1290.32 241.182 1295.95 241.182C1299.05 241.182 1302.02 240.758 1304.86 239.909C1307.71 239.061 1310.3 237.803 1312.64 236.136C1315 234.439 1317 232.364 1318.64 229.909C1320.3 227.424 1321.47 224.576 1322.14 221.364H1333.41C1332.56 226.121 1331.02 230.379 1328.77 234.136C1326.53 237.894 1323.74 241.091 1320.41 243.727C1317.08 246.333 1313.33 248.318 1309.18 249.682C1305.06 251.045 1300.65 251.727 1295.95 251.727C1288.02 251.727 1280.95 249.788 1274.77 245.909C1268.59 242.03 1263.73 236.515 1260.18 229.364C1256.64 222.212 1254.86 213.727 1254.86 203.909C1254.86 194.091 1256.64 185.606 1260.18 178.455C1263.73 171.303 1268.59 165.788 1274.77 161.909C1280.95 158.03 1288.02 156.091 1295.95 156.091C1300.65 156.091 1305.06 156.773 1309.18 158.136C1313.33 159.5 1317.08 161.5 1320.41 164.136C1323.74 166.742 1326.53 169.924 1328.77 173.682C1331.02 177.409 1332.56 181.667 1333.41 186.455Z" fill="#1572B6"/>
<path d="M1208.33 153L1178.33 264.455H1168.51L1198.51 153H1208.33Z" fill="#1572B6"/>
<path d="M1075.08 276.636C1073.26 276.636 1071.64 276.485 1070.22 276.182C1068.79 275.909 1067.81 275.636 1067.26 275.364L1069.99 265.909C1072.59 266.576 1074.9 266.818 1076.9 266.636C1078.9 266.455 1080.67 265.561 1082.22 263.955C1083.79 262.379 1085.23 259.818 1086.53 256.273L1088.53 250.818L1062.72 180.636H1074.35L1093.62 236.273H1094.35L1113.62 180.636H1125.26L1095.62 260.636C1094.29 264.242 1092.64 267.227 1090.67 269.591C1088.7 271.985 1086.41 273.758 1083.81 274.909C1081.23 276.061 1078.32 276.636 1075.08 276.636Z" fill="#1572B6"/>
<path d="M1052.03 180.636V189.727H1015.85V180.636H1052.03ZM1026.4 163.909H1037.13V230.455C1037.13 233.485 1037.56 235.758 1038.44 237.273C1039.35 238.758 1040.5 239.758 1041.9 240.273C1043.32 240.758 1044.82 241 1046.4 241C1047.58 241 1048.55 240.939 1049.31 240.818C1050.06 240.667 1050.67 240.545 1051.13 240.455L1053.31 250.091C1052.58 250.364 1051.56 250.636 1050.26 250.909C1048.96 251.212 1047.31 251.364 1045.31 251.364C1042.28 251.364 1039.31 250.712 1036.4 249.409C1033.52 248.106 1031.13 246.121 1029.22 243.455C1027.34 240.788 1026.4 237.424 1026.4 233.364V163.909Z" fill="#1572B6"/>
<path d="M991.296 250.455V180.636H1002.02V250.455H991.296ZM996.75 169C994.659 169 992.856 168.288 991.341 166.864C989.856 165.439 989.114 163.727 989.114 161.727C989.114 159.727 989.856 158.015 991.341 156.591C992.856 155.167 994.659 154.455 996.75 154.455C998.841 154.455 1000.63 155.167 1002.11 156.591C1003.63 158.015 1004.39 159.727 1004.39 161.727C1004.39 163.727 1003.63 165.439 1002.11 166.864C1000.63 168.288 998.841 169 996.75 169Z" fill="#1572B6"/>
<path d="M927.148 208.455V250.455H916.42V180.636H926.784V191.545H927.693C929.33 188 931.814 185.152 935.148 183C938.481 180.818 942.784 179.727 948.057 179.727C952.784 179.727 956.92 180.697 960.466 182.636C964.011 184.545 966.769 187.455 968.739 191.364C970.708 195.242 971.693 200.152 971.693 206.091V250.455H960.966V206.818C960.966 201.333 959.542 197.061 956.693 194C953.845 190.909 949.936 189.364 944.966 189.364C941.542 189.364 938.481 190.106 935.784 191.591C933.117 193.076 931.011 195.242 929.466 198.091C927.92 200.939 927.148 204.394 927.148 208.455Z" fill="#1572B6"/>
<path d="M884.091 157.364H895.364V219C895.364 225.364 893.864 231.045 890.864 236.045C887.894 241.015 883.697 244.939 878.273 247.818C872.848 250.667 866.485 252.091 859.182 252.091C851.879 252.091 845.515 250.667 840.091 247.818C834.667 244.939 830.455 241.015 827.455 236.045C824.485 231.045 823 225.364 823 219V157.364H834.273V218.091C834.273 222.636 835.273 226.682 837.273 230.227C839.273 233.742 842.121 236.515 845.818 238.545C849.545 240.545 854 241.545 859.182 241.545C864.364 241.545 868.818 240.545 872.545 238.545C876.273 236.515 879.121 233.742 881.091 230.227C883.091 226.682 884.091 222.636 884.091 218.091V157.364Z" fill="#1572B6"/>
</g>
<defs>
<filter id="filter0_b_4_2" x="40" y="40" width="1420" height="320" filterUnits="userSpaceOnUse" color-interpolation-filters="sRGB">
<feFlood flood-opacity="0" result="BackgroundImageFix"/>
<feGaussianBlur in="BackgroundImageFix" stdDeviation="5"/>
<feComposite in2="SourceAlpha" operator="in" result="effect1_backgroundBlur_4_2"/>
<feBlend mode="normal" in="SourceGraphic" in2="effect1_backgroundBlur_4_2" result="shape"/>
</filter>
<clipPath id="clip0_4_2">
<rect width="1500" height="400" fill="white"/>
</clipPath>
</defs>
</svg>
