<svg width="1500" height="400" viewBox="0 0 1500 400" fill="none" xmlns="http://www.w3.org/2000/svg">
<g clip-path="url(#clip0_0_73)">
<rect width="1500" height="400" fill="white"/>
<rect width="1500" height="400" fill="white"/>
<g filter="url(#filter0_b_0_73)">
<rect x="51" y="51" width="1398" height="298" rx="15" stroke="#E4B126" stroke-width="2"/>
</g>
<path d="M1385.22 249.84C1382.32 249.84 1379.33 249.627 1376.26 249.2C1373.19 248.859 1370.24 248.347 1367.43 247.664C1364.7 246.896 1362.27 246.043 1360.13 245.104L1361.8 236.912C1365.21 238.192 1368.84 239.259 1372.68 240.112C1376.6 240.88 1380.44 241.264 1384.2 241.264C1389.83 241.264 1394.1 240.368 1397 238.576C1399.9 236.784 1401.35 234.096 1401.35 230.512C1401.35 228.208 1400.71 226.373 1399.43 225.008C1398.15 223.557 1396.23 222.363 1393.67 221.424C1391.19 220.4 1388.04 219.461 1384.2 218.608C1379.59 217.413 1375.41 216.048 1371.65 214.512C1367.98 212.976 1365.08 210.971 1362.95 208.496C1360.9 205.936 1359.88 202.651 1359.88 198.64C1359.88 192.837 1362.1 188.4 1366.53 185.328C1371.06 182.256 1377.54 180.72 1385.99 180.72C1390 180.72 1394.05 181.061 1398.15 181.744C1402.33 182.427 1406.04 183.408 1409.28 184.688L1407.49 193.008C1404.51 191.728 1401.26 190.789 1397.76 190.192C1394.27 189.595 1390.72 189.296 1387.14 189.296C1381.42 189.296 1377.11 190.107 1374.21 191.728C1371.4 193.349 1369.99 195.739 1369.99 198.896C1369.99 201.029 1370.59 202.736 1371.78 204.016C1372.98 205.296 1374.77 206.405 1377.16 207.344C1379.55 208.283 1382.58 209.179 1386.24 210.032C1389.74 210.8 1392.99 211.739 1395.97 212.848C1399.04 213.957 1401.73 215.28 1404.04 216.816C1406.34 218.352 1408.13 220.272 1409.41 222.576C1410.78 224.88 1411.46 227.611 1411.46 230.768C1411.46 234.779 1410.39 238.192 1408.26 241.008C1406.21 243.824 1403.23 246 1399.3 247.536C1395.38 249.072 1390.68 249.84 1385.22 249.84Z" fill="#E4B126"/>
<path d="M1323.97 249.84C1321.07 249.84 1318.08 249.627 1315.01 249.2C1311.94 248.859 1308.99 248.347 1306.18 247.664C1303.45 246.896 1301.02 246.043 1298.88 245.104L1300.55 236.912C1303.96 238.192 1307.59 239.259 1311.43 240.112C1315.35 240.88 1319.19 241.264 1322.95 241.264C1328.58 241.264 1332.85 240.368 1335.75 238.576C1338.65 236.784 1340.1 234.096 1340.1 230.512C1340.1 228.208 1339.46 226.373 1338.18 225.008C1336.9 223.557 1334.98 222.363 1332.42 221.424C1329.94 220.4 1326.79 219.461 1322.95 218.608C1318.34 217.413 1314.16 216.048 1310.4 214.512C1306.73 212.976 1303.83 210.971 1301.7 208.496C1299.65 205.936 1298.63 202.651 1298.63 198.64C1298.63 192.837 1300.85 188.4 1305.28 185.328C1309.81 182.256 1316.29 180.72 1324.74 180.72C1328.75 180.72 1332.8 181.061 1336.9 181.744C1341.08 182.427 1344.79 183.408 1348.03 184.688L1346.24 193.008C1343.26 191.728 1340.01 190.789 1336.51 190.192C1333.02 189.595 1329.47 189.296 1325.89 189.296C1320.17 189.296 1315.86 190.107 1312.96 191.728C1310.15 193.349 1308.74 195.739 1308.74 198.896C1308.74 201.029 1309.34 202.736 1310.53 204.016C1311.73 205.296 1313.52 206.405 1315.91 207.344C1318.3 208.283 1321.33 209.179 1324.99 210.032C1328.49 210.8 1331.74 211.739 1334.72 212.848C1337.79 213.957 1340.48 215.28 1342.79 216.816C1345.09 218.352 1346.88 220.272 1348.16 222.576C1349.53 224.88 1350.21 227.611 1350.21 230.768C1350.21 234.779 1349.14 238.192 1347.01 241.008C1344.96 243.824 1341.98 246 1338.05 247.536C1334.13 249.072 1329.43 249.84 1323.97 249.84Z" fill="#E4B126"/>
<path d="M1265.57 249.84C1258.31 249.84 1252.09 248.475 1246.88 245.744C1241.67 242.928 1237.66 238.96 1234.85 233.84C1232.12 228.635 1230.75 222.448 1230.75 215.28C1230.75 208.112 1232.12 201.968 1234.85 196.848C1237.66 191.643 1241.67 187.675 1246.88 184.944C1252.09 182.128 1258.31 180.72 1265.57 180.72C1269.15 180.72 1272.57 181.104 1275.81 181.872C1279.05 182.555 1282.21 183.707 1285.28 185.328L1283.36 193.52C1280.46 192.069 1277.6 191.003 1274.78 190.32C1271.97 189.637 1269.11 189.296 1266.21 189.296C1258.27 189.296 1252.09 191.6 1247.65 196.208C1243.21 200.731 1240.99 207.088 1240.99 215.28C1240.99 223.387 1243.21 229.744 1247.65 234.352C1252.09 238.96 1258.27 241.264 1266.21 241.264C1269.11 241.264 1271.97 240.923 1274.78 240.24C1277.6 239.557 1280.46 238.491 1283.36 237.04L1285.28 245.232C1282.21 246.768 1279.05 247.92 1275.81 248.688C1272.57 249.456 1269.15 249.84 1265.57 249.84Z" fill="#E4B126"/>
<path d="M1130.8 253.68L1176.11 150H1186.48L1141.16 253.68H1130.8Z" fill="#E4B126"/>
<path d="M1069.9 248.56V155.12H1080.14V248.56H1069.9Z" fill="#E4B126"/>
<path d="M957.5 248.56V182H967.1V190.96H967.356C969.66 187.888 972.604 185.413 976.188 183.536C979.857 181.659 984.039 180.72 988.732 180.72C993.425 180.72 997.351 181.616 1000.51 183.408C1003.67 185.115 1005.8 187.632 1006.91 190.96H1007.16C1009.64 187.547 1012.67 184.987 1016.25 183.28C1019.92 181.573 1024.15 180.72 1028.92 180.72C1036.09 180.72 1041.25 182.725 1044.41 186.736C1047.65 190.661 1049.28 196.976 1049.28 205.68V248.56H1039.42V207.856C1039.42 201.285 1038.35 196.549 1036.22 193.648C1034.17 190.747 1030.8 189.296 1026.11 189.296C1020.82 189.296 1016.55 191.045 1013.31 194.544C1010.07 198.043 1008.44 202.693 1008.44 208.496V248.56H998.46V205.04C998.46 199.92 997.308 196.037 995.004 193.392C992.7 190.661 989.415 189.296 985.148 189.296C981.82 189.296 978.791 190.192 976.06 191.984C973.415 193.776 971.281 196.165 969.66 199.152C968.124 202.053 967.356 205.168 967.356 208.496V248.56H957.5Z" fill="#E4B126"/>
<path d="M926.062 249.84C918.809 249.84 913.561 248.304 910.318 245.232C907.161 242.075 905.582 236.912 905.582 229.744V190.576H889.326V182H905.582V160.24H915.694V182H940.398V190.576H915.694V227.184C915.694 232.304 916.59 235.888 918.382 237.936C920.174 239.899 923.374 240.88 927.982 240.88C930.03 240.88 931.993 240.709 933.87 240.368C935.833 240.027 937.667 239.557 939.374 238.96L940.526 247.664C937.966 248.432 935.491 248.987 933.102 249.328C930.798 249.669 928.451 249.84 926.062 249.84Z" fill="#E4B126"/>
<path d="M823 248.56V155.12H833.112V190.96H833.368C835.928 187.632 839.213 185.115 843.224 183.408C847.235 181.616 851.843 180.72 857.048 180.72C865.24 180.72 871.213 182.896 874.968 187.248C878.808 191.6 880.685 198.384 880.6 207.6V248.56H870.616V209.392C870.701 202.48 869.421 197.403 866.776 194.16C864.131 190.917 860.035 189.296 854.488 189.296C850.307 189.296 846.595 190.149 843.352 191.856C840.195 193.477 837.72 195.739 835.928 198.64C834.136 201.456 833.197 204.784 833.112 208.624V248.56H823Z" fill="#E4B126"/>
<path d="M109.397 278.317L93.6875 102.113H266.312L250.588 278.291L179.895 297.889L109.397 278.317Z" fill="#1572B6"/>
<path d="M180.002 282.909L237.125 267.072L250.564 116.519H180.002V282.909Z" fill="#33A9DC"/>
<path d="M180.002 180.358H208.598L210.573 158.228H180.002V136.617H234.192L233.673 142.416L228.361 201.969H180.002V180.358Z" fill="white"/>
<path d="M180.13 236.483L180.034 236.511L155.967 230.013L154.428 212.777H132.738L135.764 246.709L180.031 258.995L180.13 258.967V236.483Z" fill="#EBEBEB"/>
<path d="M206.761 201.055L204.158 229.995L180.055 236.502V258.986L224.358 246.708L224.683 243.056L228.442 201.055H206.761Z" fill="white"/>
<path d="M180.075 136.617V158.228H127.875L127.442 153.372L126.458 142.416L125.941 136.617H180.075ZM180.002 180.361V201.972H156.238L155.805 197.116L154.819 186.159L154.303 180.361H180.002Z" fill="#EBEBEB"/>
<path d="M353.887 270.006L339.844 112.5H494.156L480.094 269.981L416.906 287.5L353.887 270.006Z" fill="#E44F26"/>
<path d="M417 274.113L468.062 259.956L480.075 125.381H417V274.113Z" fill="#F1662A"/>
<path d="M417 183.794H391.438L389.675 164.012H417V144.694H368.562L369.025 149.881L373.769 203.112H417V183.794ZM417 233.963L416.912 233.987L395.4 228.181L394.025 212.775H374.631L377.338 243.1L416.912 254.087L417 254.062V233.963Z" fill="#EBEBEB"/>
<path d="M416.931 183.794V203.112H440.719L438.481 228.169L416.931 233.981V254.081L456.538 243.1L456.825 239.838L461.363 188.981L461.838 183.794H416.931ZM416.931 144.694V164.012H463.594L463.981 159.675L464.863 149.881L465.325 144.694H416.931Z" fill="white"/>
</g>
<defs>
<filter id="filter0_b_0_73" x="40" y="40" width="1420" height="320" filterUnits="userSpaceOnUse" color-interpolation-filters="sRGB">
<feFlood flood-opacity="0" result="BackgroundImageFix"/>
<feGaussianBlur in="BackgroundImageFix" stdDeviation="5"/>
<feComposite in2="SourceAlpha" operator="in" result="effect1_backgroundBlur_0_73"/>
<feBlend mode="normal" in="SourceGraphic" in2="effect1_backgroundBlur_0_73" result="shape"/>
</filter>
<clipPath id="clip0_0_73">
<rect width="1500" height="400" fill="white"/>
</clipPath>
</defs>
</svg>
