<svg width="1500" height="400" viewBox="0 0 1500 400" fill="none" xmlns="http://www.w3.org/2000/svg">
<g clip-path="url(#clip0_0_3)">
<rect width="1500" height="400" fill="white"/>
<rect width="1500" height="400" fill="#3E3E3E"/>
<path d="M1322.17 267C1303.98 267 1289 282.074 1289 300.375C1289 314.76 1298.33 327.019 1311.11 331.67V469.33C1298.33 473.981 1289 486.24 1289 500.625C1289 518.926 1303.98 534 1322.17 534C1340.35 534 1355.33 518.926 1355.33 500.625C1355.33 486.496 1346.31 474.548 1333.91 469.686C1335.51 456.003 1340.78 449.261 1349.12 443.609C1359.05 436.879 1374.29 432.874 1390.91 429.002C1407.55 425.142 1425.38 421.137 1440.33 410.579C1453.45 401.323 1463.38 386.16 1465.54 365.045C1478.51 360.472 1488 348.213 1488 333.75C1488 315.449 1473.02 300.375 1454.83 300.375C1436.65 300.375 1421.67 315.449 1421.67 333.75C1421.67 347.957 1430.86 359.916 1443.44 364.689C1441.92 379.296 1436.3 386.549 1427.88 392.501C1417.95 399.51 1402.62 403.626 1386.09 407.453C1369.54 411.28 1351.62 414.662 1336.67 424.841C1335.47 425.665 1334.35 426.699 1333.22 427.623V331.67C1346 327.019 1355.33 314.76 1355.33 300.375C1355.33 282.074 1340.35 267 1322.17 267ZM1322.17 289.25C1328.39 289.25 1333.22 294.123 1333.22 300.375C1333.22 306.627 1328.38 311.5 1322.17 311.5C1315.95 311.5 1311.11 306.627 1311.11 300.375C1311.11 294.123 1315.95 289.25 1322.17 289.25ZM1454.83 322.625C1461.06 322.625 1465.89 327.498 1465.89 333.75C1465.89 340.002 1461.05 344.875 1454.83 344.875C1448.62 344.875 1443.78 340.002 1443.78 333.75C1443.78 327.498 1448.62 322.625 1454.83 322.625ZM1322.17 489.5C1328.39 489.5 1333.22 494.373 1333.22 500.625C1333.22 506.877 1328.38 511.75 1322.17 511.75C1315.95 511.75 1311.11 506.877 1311.11 500.625C1311.11 494.373 1315.95 489.5 1322.17 489.5Z" fill="white" fill-opacity="0.8"/>
<path d="M18.5715 -29.2857L18.5715 35.7142C18.5715 45.1862 22.3342 54.2703 29.032 60.968C35.7297 67.6658 44.8138 71.4285 54.2858 71.4285H79.8572L63.5715 87.8571C60.7143 90.5714 60.7143 95.1428 63.5715 97.8571C66.2858 100.714 70.8572 100.714 73.5715 97.8571L102.143 69.2856C105 66.5714 105 61.9999 102.143 59.2857L73.5715 30.7142C70.8572 27.8571 66.2858 27.8571 63.5715 30.7142C60.7143 33.4285 60.7143 37.9999 63.5715 40.7142L79.8572 57.1428H54.2858C42.4286 57.1428 32.8572 47.5714 32.8572 35.7142L32.8572 -29.2857C41.5289 -31.0558 49.2345 -35.9828 54.48 -43.1114C59.7256 -50.2399 62.1373 -59.0623 61.2478 -67.868C60.3582 -76.6738 56.2307 -84.8355 49.6654 -90.771C43.1002 -96.7064 34.5649 -99.9927 25.7144 -99.9927C16.8638 -99.9927 8.32852 -96.7064 1.76328 -90.771C-4.80199 -84.8355 -8.9295 -76.6738 -9.81906 -67.868C-10.7086 -59.0623 -8.29684 -50.2399 -3.05133 -43.1114C2.1942 -35.9828 9.89977 -31.0558 18.5715 -29.2857ZM25.7144 -85.7143C37.5715 -85.7143 47.1429 -76.1429 47.1429 -64.2857C47.1429 -52.4286 37.5715 -42.8572 25.7144 -42.8572C13.8572 -42.8572 4.2858 -52.4286 4.2858 -64.2857C4.2858 -76.1429 13.8572 -85.7143 25.7144 -85.7143ZM118.571 64.2857C118.573 71.043 120.491 77.6613 124.104 83.3719C127.716 89.0825 132.875 93.651 138.98 96.5469C145.086 99.4427 151.888 100.547 158.595 99.7316C165.303 98.9162 171.642 96.2145 176.876 91.9402C182.11 87.666 186.024 81.9946 188.163 75.5848C190.302 69.175 190.579 62.2898 188.962 55.7289C187.344 49.168 183.898 43.2007 179.025 38.5199C174.151 33.8392 168.049 30.6371 161.429 29.2857V-29.3C177.714 -32.6143 190 -47.0429 190 -64.2857C190 -83.9857 173.971 -100 154.286 -100C134.6 -100 118.571 -83.9857 118.571 -64.2857C118.571 -47.0286 130.857 -32.6143 147.143 -29.3V29.2857C139.076 30.9323 131.826 35.3155 126.619 41.6935C121.413 48.0715 118.57 56.0524 118.571 64.2857ZM175.714 64.2857C175.714 76.1428 166.143 85.7142 154.286 85.7142C142.429 85.7142 132.857 76.1428 132.857 64.2857C132.857 52.4285 142.429 42.8571 154.286 42.8571C166.143 42.8571 175.714 52.4285 175.714 64.2857ZM132.857 -64.2857C132.857 -76.1 142.471 -85.7143 154.286 -85.7143C166.1 -85.7143 175.714 -76.1 175.714 -64.2857C175.714 -52.4714 166.1 -42.8572 154.286 -42.8572C142.471 -42.8572 132.857 -52.4714 132.857 -64.2857Z" fill="white" fill-opacity="0.8"/>
<g filter="url(#filter0_b_0_3)">
<rect x="51" y="51" width="1398" height="298" rx="15" stroke="white" stroke-width="2"/>
</g>
<path d="M1372.27 249.84C1367.4 249.84 1362.88 248.944 1358.7 247.152C1354.6 245.275 1351.36 242.757 1348.97 239.6H1348.71V248.56H1338.99V155.12H1349.1V190.96H1349.35C1351.66 187.717 1354.82 185.2 1358.83 183.408C1362.92 181.616 1367.4 180.72 1372.27 180.72C1381.14 180.72 1388.05 183.792 1393 189.936C1397.95 195.995 1400.43 204.443 1400.43 215.28C1400.43 226.117 1397.95 234.608 1393 240.752C1388.05 246.811 1381.14 249.84 1372.27 249.84ZM1370.09 241.264C1376.66 241.264 1381.7 239.045 1385.19 234.608C1388.78 230.085 1390.57 223.643 1390.57 215.28C1390.57 206.917 1388.78 200.517 1385.19 196.08C1381.7 191.557 1376.66 189.296 1370.09 189.296C1366.08 189.296 1362.5 190.149 1359.34 191.856C1356.18 193.477 1353.66 195.739 1351.79 198.64C1349.99 201.456 1349.1 204.784 1349.1 208.624V221.936C1349.1 225.691 1349.99 229.019 1351.79 231.92C1353.66 234.821 1356.18 237.125 1359.34 238.832C1362.5 240.453 1366.08 241.264 1370.09 241.264Z" fill="white"/>
<path d="M1284.23 249.84C1276.29 249.84 1270.45 247.664 1266.69 243.312C1263.02 238.875 1261.19 232.091 1261.19 222.96V182H1271.3V221.168C1271.3 228.08 1272.54 233.157 1275.01 236.4C1277.49 239.643 1281.37 241.264 1286.66 241.264C1290.76 241.264 1294.34 240.453 1297.41 238.832C1300.57 237.125 1303 234.864 1304.71 232.048C1306.5 229.147 1307.4 225.819 1307.4 222.064V182H1317.51V248.56H1307.78L1307.65 239.6H1307.4C1304.92 242.928 1301.72 245.488 1297.8 247.28C1293.87 248.987 1289.35 249.84 1284.23 249.84Z" fill="white"/>
<path d="M1230.28 248.56V155.12H1240.52V248.56H1230.28ZM1170.89 248.56V155.12H1181.13V248.56H1170.89ZM1176.01 204.016V194.672H1235.4V204.016H1176.01Z" fill="white"/>
<path d="M1138.3 249.84C1131.04 249.84 1125.8 248.304 1122.55 245.232C1119.4 242.075 1117.82 236.912 1117.82 229.744V190.576H1101.56V182H1117.82V160.24H1127.93V182H1152.63V190.576H1127.93V227.184C1127.93 232.304 1128.83 235.888 1130.62 237.936C1132.41 239.899 1135.61 240.88 1140.22 240.88C1142.27 240.88 1144.23 240.709 1146.11 240.368C1148.07 240.027 1149.9 239.557 1151.61 238.96L1152.76 247.664C1150.2 248.432 1147.73 248.987 1145.34 249.328C1143.03 249.669 1140.69 249.84 1138.3 249.84Z" fill="white"/>
<path d="M1074.39 167.024V155.12H1086.29V167.024H1074.39ZM1075.28 248.56V182H1085.52V248.56H1075.28Z" fill="white"/>
<path d="M1018.67 249.84C1008.26 249.84 999.302 247.92 991.793 244.08C984.369 240.24 978.652 234.736 974.641 227.568C970.63 220.315 968.625 211.739 968.625 201.84C968.625 191.856 970.63 183.28 974.641 176.112C978.652 168.944 984.326 163.44 991.665 159.6C999.089 155.76 1007.92 153.84 1018.16 153.84C1023.79 153.84 1029.13 154.48 1034.16 155.76C1039.2 156.955 1043.76 158.832 1047.86 161.392L1045.17 170.224C1041.41 167.92 1037.19 166.171 1032.5 164.976C1027.89 163.781 1023.11 163.184 1018.16 163.184C1010.14 163.184 1003.23 164.72 997.425 167.792C991.708 170.864 987.27 175.301 984.113 181.104C981.041 186.821 979.505 193.733 979.505 201.84C979.505 209.947 981.041 216.901 984.113 222.704C987.27 228.421 991.75 232.816 997.553 235.888C1003.44 238.96 1010.48 240.496 1018.67 240.496C1023.2 240.496 1027.68 240.027 1032.11 239.088C1036.64 238.149 1040.56 236.827 1043.89 235.12L1041.97 239.088V204.656H1007.03V195.824H1052.21V242.672C1047.77 244.891 1042.57 246.64 1036.59 247.92C1030.62 249.2 1024.65 249.84 1018.67 249.84Z" fill="white"/>
<path d="M868.157 253.68L913.469 150H923.837L878.525 253.68H868.157Z" fill="white"/>
<path d="M808.673 249.84C801.42 249.84 796.172 248.304 792.929 245.232C789.772 242.075 788.193 236.912 788.193 229.744V190.576H771.937V182H788.193V160.24H798.305V182H823.009V190.576H798.305V227.184C798.305 232.304 799.201 235.888 800.993 237.936C802.785 239.899 805.985 240.88 810.593 240.88C812.641 240.88 814.604 240.709 816.481 240.368C818.444 240.027 820.278 239.557 821.985 238.96L823.137 247.664C820.577 248.432 818.102 248.987 815.713 249.328C813.409 249.669 811.062 249.84 808.673 249.84Z" fill="white"/>
<path d="M744.763 167.024V155.12H756.667V167.024H744.763ZM745.659 248.56V182H755.899V248.56H745.659Z" fill="white"/>
<path d="M689.048 249.84C678.637 249.84 669.677 247.92 662.168 244.08C654.744 240.24 649.027 234.736 645.016 227.568C641.005 220.315 639 211.739 639 201.84C639 191.856 641.005 183.28 645.016 176.112C649.027 168.944 654.701 163.44 662.04 159.6C669.464 155.76 678.296 153.84 688.536 153.84C694.168 153.84 699.501 154.48 704.536 155.76C709.571 156.955 714.136 158.832 718.232 161.392L715.544 170.224C711.789 167.92 707.565 166.171 702.872 164.976C698.264 163.781 693.485 163.184 688.536 163.184C680.515 163.184 673.603 164.72 667.8 167.792C662.083 170.864 657.645 175.301 654.488 181.104C651.416 186.821 649.88 193.733 649.88 201.84C649.88 209.947 651.416 216.901 654.488 222.704C657.645 228.421 662.125 232.816 667.928 235.888C673.816 238.96 680.856 240.496 689.048 240.496C693.571 240.496 698.051 240.027 702.488 239.088C707.011 238.149 710.936 236.827 714.264 235.12L712.344 239.088V204.656H677.4V195.824H722.584V242.672C718.147 244.891 712.941 246.64 706.968 247.92C700.995 249.2 695.021 249.84 689.048 249.84Z" fill="white"/>
<mask id="mask0_0_3" style="mask-type:luminance" maskUnits="userSpaceOnUse" x="317" y="100" width="200" height="200">
<path d="M317 100H517V300H317V100Z" fill="white"/>
</mask>
<g mask="url(#mask0_0_3)">
<path fill-rule="evenodd" clip-rule="evenodd" d="M417 100C361.75 100 317 144.75 317 200C317 244.25 345.625 281.625 385.375 294.875C390.375 295.75 392.25 292.75 392.25 290.125C392.25 287.75 392.125 279.875 392.125 271.5C367 276.125 360.5 265.375 358.5 259.75C357.375 256.875 352.5 248 348.25 245.625C344.75 243.75 339.75 239.125 348.125 239C356 238.875 361.625 246.25 363.5 249.25C372.5 264.375 386.875 260.125 392.625 257.5C393.5 251 396.125 246.625 399 244.125C376.75 241.625 353.5 233 353.5 194.75C353.5 183.875 357.375 174.875 363.75 167.875C362.75 165.375 359.25 155.125 364.75 141.375C364.75 141.375 373.125 138.75 392.25 151.625C400.25 149.375 408.75 148.25 417.25 148.25C425.75 148.25 434.25 149.375 442.25 151.625C461.375 138.625 469.75 141.375 469.75 141.375C475.25 155.125 471.75 165.375 470.75 167.875C477.125 174.875 481 183.75 481 194.75C481 233.125 457.625 241.625 435.375 244.125C439 247.25 442.125 253.25 442.125 262.625C442.125 276 442 286.75 442 290.125C442 292.75 443.875 295.875 448.875 294.875C468.726 288.173 485.976 275.414 498.197 258.395C510.418 241.375 516.994 220.952 517 200C517 144.75 472.25 100 417 100Z" fill="white"/>
</g>
<path d="M276.214 191.087L188.888 103.773C187.692 102.577 186.272 101.628 184.71 100.981C183.147 100.333 181.473 100 179.781 100C178.09 100 176.415 100.333 174.853 100.981C173.29 101.628 171.87 102.577 170.675 103.773L152.55 121.899L175.55 144.899C178.263 143.973 181.181 143.828 183.972 144.481C186.763 145.134 189.314 146.558 191.334 148.592C193.355 150.625 194.763 153.185 195.398 155.98C196.033 158.775 195.869 161.693 194.925 164.399L217.088 186.575C220.367 185.42 223.941 185.417 227.223 186.565C230.504 187.713 233.296 189.944 235.14 192.891C236.984 195.838 237.769 199.325 237.367 202.778C236.964 206.231 235.398 209.444 232.926 211.888C230.423 214.406 227.124 215.977 223.591 216.332C220.059 216.688 216.513 215.806 213.558 213.838C210.604 211.869 208.424 208.936 207.393 205.539C206.361 202.142 206.54 198.492 207.9 195.212L187.238 174.537V228.951C190.378 230.505 192.891 233.089 194.358 236.272C195.824 239.455 196.156 243.045 195.297 246.442C194.437 249.84 192.44 252.84 189.637 254.943C186.834 257.047 183.394 258.126 179.892 258.001C176.39 257.876 173.036 256.554 170.39 254.256C167.744 251.958 165.966 248.823 165.351 245.373C164.737 241.922 165.323 238.366 167.013 235.296C168.703 232.225 171.394 229.827 174.637 228.5V173.587C172.766 172.82 171.065 171.691 169.632 170.263C168.199 168.836 167.063 167.139 166.289 165.27C165.515 163.402 165.119 161.399 165.123 159.376C165.127 157.354 165.531 155.352 166.312 153.487L143.649 130.811L83.7733 190.687C82.5771 191.883 81.6281 193.303 80.9807 194.865C80.3332 196.428 80 198.102 80 199.794C80 201.485 80.3332 203.16 80.9807 204.722C81.6281 206.285 82.5771 207.704 83.7733 208.9L171.1 296.227C172.296 297.423 173.715 298.372 175.278 299.019C176.84 299.667 178.515 300 180.206 300C181.898 300 183.572 299.667 185.135 299.019C186.697 298.372 188.117 297.423 189.313 296.227L276.227 209.313C277.423 208.117 278.372 206.697 279.019 205.135C279.667 203.572 280 201.898 280 200.206C280 198.515 279.667 196.84 279.019 195.278C278.372 193.715 277.423 192.296 276.227 191.1" fill="white"/>
</g>
<defs>
<filter id="filter0_b_0_3" x="40" y="40" width="1420" height="320" filterUnits="userSpaceOnUse" color-interpolation-filters="sRGB">
<feFlood flood-opacity="0" result="BackgroundImageFix"/>
<feGaussianBlur in="BackgroundImageFix" stdDeviation="5"/>
<feComposite in2="SourceAlpha" operator="in" result="effect1_backgroundBlur_0_3"/>
<feBlend mode="normal" in="SourceGraphic" in2="effect1_backgroundBlur_0_3" result="shape"/>
</filter>
<clipPath id="clip0_0_3">
<rect width="1500" height="400" fill="white"/>
</clipPath>
</defs>
</svg>
