<?xml version="1.0" encoding="utf-8"?>
<svg xmlns="http://www.w3.org/2000/svg" viewBox="136.081 57.006 238.16 87.62" width="238.16px" height="87.62px"><defs><style>
      .cls-1 {
        fill: #e7e7e6;
      }

      .cls-2 {
        fill: #0e1734;
      }
    </style></defs><g id="object-0"><rect class="cls-1" x="220.891" y="57.006" width="23.75" height="87.62"/><polygon class="cls-1" points="248.231 111.336 305.321 111.336 305.321 123.146 248.231 123.146 248.231 144.626 309.441 144.626 309.441 89.855 252.351 89.855 252.351 78.485 309.441 78.485 309.441 57.006 248.231 57.006 248.231 111.336"/><polygon class="cls-1" points="374.241 78.485 374.241 57.006 313.031 57.006 313.031 144.626 374.241 144.626 374.241 123.146 317.161 123.146 317.161 78.485 374.241 78.485"/><polygon class="cls-1" points="177.471 107.485 175.931 107.485 159.831 57.006 136.081 57.006 136.081 144.626 159.831 144.626 159.831 70.555 172.951 111.605 180.441 111.605 193.551 70.565 193.551 144.626 217.301 144.626 217.301 57.006 193.551 57.006 177.471 107.485"/></g></svg>